# xmcd
#
# Track frame offsets: 
#        150
#        18290
#        33248
#        47017
#        62254
#        80053
#        94614
#        114299
#        130865
#        154855
#        172960
#        192619
#        212288
#
# Disc length: 3114 seconds
#
# Revision: 1
# Processed by: cddbd v1.5.2PL0 Copyright (c) Steve Scherf et al.
# Submitted via: ExactAudioCopyFreeDBPlugin 1.0
#
DISCID=9b0c280d
DTITLE=黑鸭子 - DTS51发烧碟
DYEAR=2007
DGENRE=DTS
TTITLE0=绒花
TTITLE1=太阳岛上
TTITLE2=雁南飞
TTITLE3=踏浪
TTITLE4=驼铃
TTITLE5=九九艳阳天
TTITLE6=少年壮志不言愁
TTITLE7=我们的生活充满阳光
TTITLE8=葬花吟
TTITLE9=雁南飞
TTITLE10=几度夕阳红
TTITLE11=星星知我心
TTITLE12=好人一生平安
EXTD=
EXTT0=
EXTT1=
EXTT2=
EXTT3=
EXTT4=
EXTT5=
EXTT6=
EXTT7=
EXTT8=
EXTT9=
EXTT10=
EXTT11=
EXTT12=
PLAYORDER=
